<?xml version="1.0" encoding="utf-8"?>
<!-- Generator: Adobe Illustrator 22.0.1, SVG Export Plug-In . SVG Version: 6.00 Build 0)  -->
<svg version="1.1" id="Layer_1" xmlns="http://www.w3.org/2000/svg" xmlns:xlink="http://www.w3.org/1999/xlink" x="0px" y="0px"
	 viewBox="0 0 667.7 238" style="enable-background:new 0 0 667.7 238;" xml:space="preserve">
<style type="text/css">
	.st0{fill:#FFFFFF;}
</style>
<g>
	<g>
		<g>
			<path class="st0" d="M7.2,148.9c-0.6-0.1-1.3-0.5-2.1-1c-0.7-0.6-1.4-1.3-2.1-2.2c-0.6-0.8-1.1-1.8-1.5-2.7
				c-0.4-1-0.6-1.9-0.6-2.7V99.5c0-1.8,0.6-3.3,1.7-4.6s2.1-2.2,2.9-2.9l9.1-4L230.6,4.3c2.1-0.8,3.9-0.7,5.2,0.5
				c1.3,1.2,2,3.2,2,6.1v45.8c0,2.4-0.5,4.3-1.4,5.7c-0.9,1.3-2.4,2.4-4.5,3.1c-5.4,2.1-10.8,4.2-16.2,6.2c-5.4,2-10.8,4-16.2,6.1
				v84.7c5.4,2,10.8,4.1,16.2,6.1c5.4,2.1,10.8,4.1,16.2,6.1c3.9,1.4,5.9,4.1,5.9,8.1v47c0,2-0.5,3.7-1.6,5
				c-1.1,1.3-2.7,1.6-4.8,0.7L7.2,148.9z M75.4,119.9c5.4,2,11.3,4.1,17.5,6.1c6.3,2.1,12.6,4.1,19,6.1c6.4,2,12.7,4.1,18.9,6.1
				c6.2,2.1,12,4.1,17.5,6.1V95.5L75.4,119.9z"/>
		</g>
	</g>
	<g>
		<g>
			<path class="st0" d="M660.7,89.8c0.6,0.1,1.3,0.5,2.1,1c0.7,0.6,1.4,1.3,2.1,2.2c0.6,0.8,1.1,1.8,1.5,2.7c0.4,1,0.6,1.9,0.6,2.7
				v40.8c0,1.8-0.6,3.3-1.7,4.6c-1.1,1.3-2.1,2.2-2.9,2.9l-9.1,4l-215.9,83.7c-2.1,0.8-3.9,0.7-5.2-0.5s-2-3.2-2-6.1v-45.8
				c0-2.4,0.5-4.3,1.4-5.7c0.9-1.3,2.4-2.4,4.5-3.1c5.4-2.1,10.8-4.2,16.2-6.2c5.4-2,10.8-4,16.2-6.1V76.4c-5.4-2-10.8-4.1-16.2-6.1
				c-5.4-2.1-10.8-4.1-16.2-6.1c-3.9-1.4-5.9-4.1-5.9-8.1V9c0-2,0.5-3.7,1.6-5c1.1-1.3,2.7-1.6,4.8-0.7L660.7,89.8z M592.5,118.9
				c-5.4-2-11.3-4.1-17.5-6.1c-6.3-2.1-12.6-4.1-19-6.1c-6.4-2-12.7-4.1-18.9-6.1c-6.2-2.1-12-4.1-17.5-6.1v48.9L592.5,118.9z"/>
		</g>
	</g>
	<g>
		<g>
			<path class="st0" d="M353,7.6c0.8-1.9,2.1-3.6,3.7-4.9c1.6-1.4,3.8-2.1,6.5-2.1h44.2c2.1,0,4,0.4,5.7,1.3
				c1.6,0.9,2.5,2.1,2.5,3.7c0,1.2-0.1,1.9-0.3,2.1L314.4,230.4c-1.2,2.7-2.3,4.5-3.3,5.5c-1.1,1-2.7,1.5-4.9,1.5h-47.8
				c-4.4,0-6.5-1.4-6.5-4.1c0-0.2,0.1-0.4,0.2-0.6l0.5-2.2L353,7.6z"/>
		</g>
	</g>
</g>
<g>
	<g>
		<path d="M1018.2,148.9c-0.6-0.1-1.3-0.5-2.1-1c-0.7-0.6-1.4-1.3-2.1-2.2c-0.6-0.8-1.1-1.8-1.5-2.7c-0.4-1-0.6-1.9-0.6-2.7V99.5
			c0-1.8,0.6-3.3,1.7-4.6c1.1-1.3,2.1-2.2,2.9-2.9l9.1-4l215.9-83.7c2.1-0.8,3.9-0.7,5.2,0.5c1.3,1.2,2,3.2,2,6.1v45.8
			c0,2.4-0.5,4.3-1.4,5.7c-0.9,1.3-2.4,2.4-4.5,3.1c-5.4,2.1-10.8,4.2-16.2,6.2c-5.4,2-10.8,4-16.2,6.1v84.7
			c5.4,2,10.8,4.1,16.2,6.1c5.4,2.1,10.8,4.1,16.2,6.1c3.9,1.4,5.9,4.1,5.9,8.1v47c0,2-0.5,3.7-1.6,5c-1.1,1.3-2.7,1.6-4.8,0.7
			L1018.2,148.9z M1086.4,119.9c5.4,2,11.3,4.1,17.5,6.1c6.3,2.1,12.6,4.1,19,6.1c6.4,2,12.7,4.1,18.9,6.1c6.2,2.1,12,4.1,17.5,6.1
			V95.5L1086.4,119.9z"/>
	</g>
	<g>
		<path d="M1671.7,89.8c0.6,0.1,1.3,0.5,2.1,1c0.7,0.6,1.4,1.3,2.1,2.2c0.6,0.8,1.1,1.8,1.5,2.7c0.4,1,0.6,1.9,0.6,2.7v40.8
			c0,1.8-0.6,3.3-1.7,4.6c-1.1,1.3-2.1,2.2-2.9,2.9l-9.1,4l-215.9,83.7c-2.1,0.8-3.9,0.7-5.2-0.5c-1.3-1.2-2-3.2-2-6.1v-45.8
			c0-2.4,0.5-4.3,1.4-5.7c0.9-1.3,2.4-2.4,4.5-3.1c5.4-2.1,10.8-4.2,16.2-6.2c5.4-2,10.8-4,16.2-6.1V76.4c-5.4-2-10.8-4.1-16.2-6.1
			c-5.4-2.1-10.8-4.1-16.2-6.1c-3.9-1.4-5.9-4.1-5.9-8.1V9c0-2,0.5-3.7,1.6-5c1.1-1.3,2.7-1.6,4.8-0.7L1671.7,89.8z M1603.5,118.9
			c-5.4-2-11.3-4.1-17.5-6.1c-6.3-2.1-12.6-4.1-19-6.1c-6.4-2-12.7-4.1-18.9-6.1c-6.2-2.1-12-4.1-17.5-6.1v48.9L1603.5,118.9z"/>
	</g>
	<g>
		<path d="M1364,7.6c0.8-1.9,2.1-3.6,3.7-4.9c1.6-1.4,3.8-2.1,6.5-2.1h44.2c2.1,0,4,0.4,5.7,1.3c1.6,0.9,2.5,2.1,2.5,3.7
			c0,1.2-0.1,1.9-0.3,2.1l-100.8,222.7c-1.2,2.7-2.3,4.5-3.3,5.5c-1.1,1-2.7,1.5-4.9,1.5h-47.8c-4.4,0-6.5-1.4-6.5-4.1
			c0-0.2,0.1-0.4,0.2-0.6l0.5-2.2L1364,7.6z"/>
	</g>
</g>
</svg>
